# xmcd
#
# Track frame offsets:
# 150
# 15936
# 35779
# 55292
# 74399
# 94035
# 114075
# 129720
# 148935
# 168298
# 188554
# 209918
# 226022
# 244628
# 264347
# 287843
# 307025
#
# Disc length: 4430 seconds
#
#
# Revision: 2
# Processed by: cddbd v1.5.2PL0 Copyright (c) Steve Scherf et al.
# Submitted via: FreeRIP 2.951 
#
DISCID=f2114c11
DTITLE=Fabio Jr. - Fábio Jr. - Brilhante
DYEAR=1900
DGENRE=Popular
TTITLE0=Faixa 01 - Senta Aqui
TTITLE1=Faixa 02 - Quando Gira O Mundo
TTITLE2=Faixa 13 - Sem Limites Pra Sonhar
TTITLE3=Faixa 04 - Desejos E Delírios
TTITLE4=Faixa 05 - Rio E Canoa
TTITLE5=Faixa 06 - Ai Qui Saudade De Ocê
TTITLE6=Faixa 07 - O Que É Que Há
TTITLE7=Faixa 08 - Fêmea
TTITLE8=Faixa 09 - Caça E Caçador
TTITLE9=Faixa 10 - Seu Melhor Amigo
TTITLE10=Faixa 11 - Eu Me Rendo
TTITLE11=Faixa 12 - Enrosca
TTITLE12=Faixa 13 - Felicidade
TTITLE13=Faixa 14 - Volta Ao Começo
TTITLE14=Faixa 15 - Pai
TTITLE15=Faixa 16 - Vida
TTITLE16=Faixa 17 - Romaria
EXTD=pedro.rp@oi.com.br\nJan. 2007
EXTT0=
EXTT1=
EXTT2=
EXTT3=
EXTT4=
EXTT5=
EXTT6=
EXTT7=
EXTT8=
EXTT9=
EXTT10=
EXTT11=
EXTT12=
EXTT13=
EXTT14=
EXTT15=
EXTT16=
PLAYORDER=
